<svg xmlns:svg="http://www.w3.org/2000/svg" xmlns="http://www.w3.org/2000/svg" version="1.2" x="0" y="0" width="238.2" height="323.6" viewBox="0 0 238.2 323.6" xml:space="preserve"><metadata/><defs/><g transform="translate(-281.08803,-137.76492)"><path d="m437.7 364.2c-1.9-1.1-4-1.5-6.1-0.9-2.7 0.8-9.7 5.1-9.7 12.5l-0.1 55.3c1.7 7.6 5.4 11.6 12.4 11.5 3.1 0 5.8-3.1 8.2-7.9l-4.6-70.5zM397 335.6 397 335.6c1.4 8.6 4.5 15.5 9.1 16.3 9.5 1.7 19.6-26.7 24.3-39.2 5.4-14.3 2.5-34.2-7.1-34-5.6 0.1-19.8 15.4-24.8 30-2.2 6.5-2.8 15.5-2 23.6" fill="#fb4b34"/><path d="m447.5 255.1c-2.7 3.9-6.5 9.5-8.3 12.7-3 5.3-9.9 13.5-9.9 13.5 0 0-1.2-2.3-1.9-2.9-0.7-0.5 7.6-11.4 11-16.5 2.7-3.9 8.1-10.9 10.4-13.8l-1.4 7zM380.7 338.5 380.7 338.5c4.6-14.3 7.1-17.3 10.6-24.8 3.6-7.5 10.2-12.5 20.5-27.2 10.8-15.5 19.9-33.2 22.8-43 2.9-9.8 1.4-24.8 1.6-26.4 0.2-1.6 6.8-6 11.3-9.1 2.9-2.1 8.6-7.6 11.5-10.4l0.1-3.3c0 0 0 0-5.5 5.5-5.5 5.5-15.4 9.9-20 11.9-4.6 2-17.7 8.6-34.1 22-16.3 13.4-21.9 42.3-23.7 53.5-1.7 10.4-4.1 33-4.4 38.4-0.3 4.6-0.5 10.6-0.5 16.2l10-3.2zM465 231.3c0.5-0.2 2.9-0.4 3.2-0.5 0.8-0.1-0.9-13.7-1.3-19.8-0.4-6.1-3.1-24.3-3.1-24.3l-1.3 7.8-0.3 2.6c0.4 4.3 1.2 13.9 1.1 18.6l1.7 15.5z" fill="#80b33a"/><path d="m438.5 360.5c-8.2-4.5-16.6 4.6-16.9 12.6 0 1 1.5 1 1.5 0 0.2-6.8 7.4-15.2 14.6-11.3 0.9 0.5 1.6-0.8 0.8-1.3l0 0z"/><path d="m421.7 430.7c1.2 5.4 3.6 10.3 9.1 12.1 6.5 2.1 10.2-2.7 12.8-8 0.4-0.9-0.9-1.6-1.3-0.8-2.7 5.4-6.2 9.5-12.5 6.8-4.1-1.7-5.7-6.5-6.6-10.5-0.2-0.9-1.7-0.5-1.4 0.4l0 0z"/><path d="m458.5 233.1c1.8-11.9 3-23.8 4.3-35.8 0 0.2-1.4 0.2-1.4 0.4-1.3 12-2.5 23.9-4.3 35.8 0-0.2 1.4-0.2 1.4-0.4l0 0z"/><path d="m435 311.7c0 0 4.9 17.3 5.9 23.4 1 6 4.7 16 4.7 16 0 0 2-1.8 2.8-2 0.8-0.3-3.2-13.3-4.7-19.2-1.5-6-7-21.5-7-21.5l-1.6 3.4zM320.5 382.3 320.5 382.3c12.9-20.5 24.7-32.3 38.2-38.4 13.4-6.1 33.5-10 39.4-13.5 5.9-3.6 11.8-8.3 19.8-13.6 8-5.4 17-11.7 17-11.7l0 2.8c0 0-8.9 7-15.1 11.5-6.1 4.5-18.4 11-19.6 13.4-1.2 2.3-4.7 18.5-11.8 28.6-7.1 10.1-18.9 19.9-28.3 26.7-9.4 6.8-17.4 8.7-27.1 22.7-9.7 14.1-17 25.3-23.6 31.6-6.6 6.3-18.6 19.2-21.4 15.5-2.8-3.7 10.1-31.9 15.1-42 4.9-10.1 8-18.5 17.4-33.5z" fill="#80b33a"/><path d="m317 384.1c7.1-11.2 15-22 25.4-30.4 10.2-8.3 23-11.8 35.4-15.4 4.4-1.3 8.8-2.5 13-4.2 4.3-1.7 8.1-4.6 11.9-7.3 9.4-6.6 18.9-13.1 28.3-19.7-0.9 0.1-1.7 0.2-2.6 0.4 0 3.5-1.3 3.7-4.1 5.9-4.8 3.7-9.6 7.5-14.7 10.7-6.1 4-14.7 6.9-17 14.3-3.5 11.5-7.5 22.1-15.5 31.3-8.6 9.9-19.3 18.3-30.5 25.1-4 2.4-7.9 5-11.4 8.1-5.2 4.7-9 10.7-13 16.4-6.9 10.1-13.7 19.8-22.4 28.4-3.6 3.5-7.2 7.1-11.2 10.2-5.2 4-5-0.3-4-4.3 2.2-9.1 6.4-17.9 10.3-26.4 6.7-14.6 13.4-29.4 21.9-43 0.2-0.3-2.4-0.2-2.9 0.5-11 17.6-19.9 37.1-27.7 56.3-1.6 4-3.1 8.1-4.3 12.2-0.5 1.9-1.7 5.2-0.5 7.1 2.5 4.2 12-4.4 13.5-5.7 7.6-6.7 14.6-14 20.6-22.1 8.5-11.6 15.3-25.2 27.1-33.7 4-2.9 8.3-5.1 12.4-7.9 5.3-3.6 10.3-7.7 15-11.9 9.6-8.5 17-17.8 21.6-29.9 1.8-4.7 2.9-9.6 4.7-14.3 0.7-1.9 3.5-3.2 5-4.2 3-2 6.1-3.8 9.2-5.7 5.3-3.3 10.3-7.2 15.2-11 3.4-2.6 5.4-3 5.4-7.2 0-0.6-2.3 0.2-2.6 0.4-9.4 6.6-18.9 13-28.3 19.7-4.7 3.3-9.1 6.3-14.6 8.2-5.7 1.9-11.5 3.4-17.3 5.2-10.4 3.3-20.2 7.1-28.8 13.9-10.5 8.2-18.5 19.5-25.6 30.7-0.2 0.3 2.4 0.2 2.9-0.5z"/><path d="m481 302.2c5.8 1.2 12.6 3.6 15.9 8.4 5 7.3 12.4 18.3 16.9 39.6 4.3 20.4 7 36.5 3.1 49.4-4 12.8-13.3 42.4-16.5 42.2-3.2-0.2 0-12.8-8.6-37.9-8.6-25.1-21.7-40.4-23.4-54.5-1.1-9.6-2.6-17.9-2.8-24.5" fill="#80b33a"/><path d="m480.8 298.9c6.5 1.4 12.5 3.7 16.3 9.4 2.4 3.6 4.7 7.2 6.7 11.1 6.5 12.4 9.3 26.2 11.8 39.8 2.3 12.6 3.8 25.5 0 37.9-2.9 9.4-6 18.9-9.5 28.1-1.3 3.5-2.7 7.2-4.7 10.4-2 3.3-2.1-1.8-2.3-3.3-1.1-10.5-2.9-20.7-6.2-30.8-4-12.3-10-23.8-16-35.2-2.4-4.6-4.7-9.2-6.4-14.1-2.1-6.2-2.4-12.9-3.3-19.4-0.5-4-1-7.9-1.1-11.9 0-1-1.5-1-1.5 0 0.2 6.3 1.2 12.6 2.1 18.9 0.7 5.2 1.3 10 3.1 14.9 3.8 10.3 9.9 19.7 14.5 29.6 6.1 12.9 10.5 26.7 12.4 40.9 0.4 3-0.4 11.1 2.6 13.2 4.1 2.9 15.3-33.7 16.3-36.9 3.3-10.4 4.2-19.9 3-30.8-1.5-13.7-4.3-27.9-8.9-40.9-2.5-7.1-5.9-13.7-10-20-4.6-7.1-10.4-10.4-18.7-12.2-0.9-0.2-1.3 1.2-0.4 1.4l0 0z"/><path d="m394.3 334.8c0.8 4.8 3.5 18.1 11.1 16.2 3.6-0.9 5.9-2.9 8.2-5.9 4.9-6.3 8-14.2 11-21.5 3.2-7.9 6.5-15.7 7.3-24.3 0.7-8-1.8-26.2-13.6-20.8-7.7 3.5-13.8 12.8-17.9 19.8-6 10.2-7.5 21.5-6.4 33.2 0-0.1 1.5-0.3 1.4-0.4-1.1-12.4 0.8-23.7 7.2-34.5 4.1-6.8 10.6-16.2 18.4-19-0.5 0.1-0.9 0.3-1.4 0.4 7-1.7 9.7 7.5 10.5 12.6 1.4 8.2-0.4 16.3-3.3 23.9-2.7 7.2-5.5 14.3-8.8 21.2-2.4 5-6.3 13.6-12.3 15.3 0.4-0.1 0.7-0.2 1.1-0.3-7.7 1.2-10.1-10.9-11-16.3 0 0-1.5 0.3-1.4 0.4l0 0z"/><path d="m462 197.4c0.4 4.3 1.2 13.9 1.1 18.6-0.1 4.5 1 11.4 1.5 14.7" stroke-miterlimit="10" style="fill:none;stroke:#000"/><path d="m464 189.9-0.8-3.3c2.4-22.5 5.1-48.8 5.1-48.8l-5.3 0c0 0-8.6 85.1-12.7 102-4.1 16.8-5.3 32.4-14.8 56.2-9.4 23.8-12.3 29.5-19.3 44.3-7 14.8-8.2 19.7-8.2 19.7l5.7 0c0 0 5.3-7.8 13.5-30 8.2-22.2 14.4-29.1 20.5-48.8 0-0.1 0.1-0.2 0.1-0.3M466.8 231.6 466.8 231.6c0.5-0.2 0.9-0.4 1.2-0.5" fill="#80b33a"/><path d="m377.7 337.5c4.6-14.3 7.1-17.3 10.6-24.8 3.6-7.5 8.7-13.7 20.5-27.2 11.8-13.5 19.9-33.2 22.8-43 2.9-9.8 1.4-24.8 1.6-26.4 0.2-1.6 6.8-2 11.3-5.1 2.7-1.9 7.8-6.7 10.8-9.7l0.7-0.7c-2.1 17.3-4.3 33-5.8 39.3-0.3 1.4-0.7 2.8-1 4.2l-1.3 6.3c-2.3 2.9-7.7 9.8-10.4 13.8-3.4 5.1-11.7 16-11 16.5 0.7 0.5 1.9 2.9 1.9 2.9 0 0 6.9-8.1 9.9-13.5 1.8-3.2 5.5-8.7 8.3-12.7l-1.2 5.8c-2.1 9.6-4.8 20.1-9.9 32.9-9.4 23.8-12.3 29.5-19.3 44.3-7 14.8-8.2 19.7-8.2 19.7l5.7 0c0 0 5.3-7.8 13.5-30 1.7-4.7 3.4-8.6 4.9-12.2l1.8-4c0 0 3.9 14.1 4.9 20.2 1 6 4.7 16 4.7 16 0 0 2-1.8 2.8-2 0.8-0.3-3.2-13.3-4.7-19.2-1.1-4.6-4.4-14.6-5.8-18.9l1.9-3.9c3.6-7.4 6.8-14.3 10.1-24.8 0-0.1 0.1-0.2 0.1-0.3M463 138.2 463 138.2c0 0-3.1 30.5-6.5 58.6l-0.4 0.4c0 0 0 0-5.5 5.5-5.5 5.5-15.4 9.9-20 11.9-4.6 2-17.7 4.6-34.1 18-16.3 13.4-21.9 42.3-23.7 53.5-1.7 10.4-4.1 33-4.4 38.4-0.3 4.6-0.5 10.6-0.5 16.2M466.8 231.6c0.5-0.2 0.9-0.4 1.2-0.5 0.8-0.1-0.9-13.7-1.3-19.8-0.5-7.2 0.1-2.9-2.8-21.4l-0.8-3.3c2.4-22.5 5.1-48.8 5.1-48.8" stroke-miterlimit="10" style="fill:none;stroke:#000"/><path d="m428.7 329c0 0 0.7 12.7 0.3 17.9-0.4 5.2 1 14.4 1 14.4 0 0 2.3-0.9 3.1-0.9 0.8 0-0.2-11.8-0.3-17.1-0.1-5.3-1.6-20.7-1.6-20.7l-2.5 6.4z" fill="#80b33a"/><path d="m428.7 329c0 0 0.7 12.7 0.3 17.9-0.4 5.2 1 14.4 1 14.4 0 0 2.3-0.9 3.1-0.9 0.8 0-0.2-11.8-0.3-17.1-0.1-5.3-1.6-20.7-1.6-20.7l-2.5 6.4z" stroke-miterlimit="10" style="fill:none;stroke:#000"/><path d="m449.8 267.2c3-19.6 5.8-35 14.5-34.7 8.7 0.3 18.1 28.3 18.4 44.2 0.4 18-9 45.3-17.7 45-8.7-0.3-18-36.7-15.3-54.5z" fill="#fb4b34"/><path d="m449.4 265.4c1.2-7.2 2.4-14.5 4.4-21.5 1.3-4.7 3.3-10.1 7.7-12.7 3.1-1.8 7.7 4.2 9.1 6 3.6 4.9 6 10.9 8 16.6 4.4 12.5 5.4 24.9 2.7 38-1.4 6.6-3.6 13-6.6 19-1.8 3.6-4.9 9.1-9.1 10.3 0.7-0.2 1.5-0.4 2.2-0.6-8.2 1.3-12.4-14.2-14.2-19.7-3.5-11.1-5.9-23.8-4.2-35.4-0.1 0.4-2.8 0.4-2.9 0.8-1.5 9.7 0.2 19.9 2.5 29.3 1.9 8 4.7 17.7 10.6 23.8 2.8 2.9 6.8 2.1 10.1 0.4 7.9-4 11.4-17 13.5-24.7 5.4-19.6 2-43.9-10.9-60.2-3.4-4.3-7.2-5.1-12.2-3.5-8.4 2.8-10.1 15.9-11.6 23.2-0.8 3.9-1.4 7.7-2 11.6 0.1-0.4 2.8-0.3 2.9-0.8z"/><path d="m428 409.9c0-19.8-7.4-49.6-18.9-49.6-11.5 0-25.2 30.5-26.3 47.9-1.3 19.8 9.8 50.2 21.3 50.2 11.5 0 24-28.7 24-48.5z" fill="#fb4b34"/><path d="m428.8 406.4c-0.1-11.3-1.9-22.7-5.6-33.5-2.1-6.3-5.9-15.3-13.3-16.6-6.4-1-11.8 4.9-15.2 9.4-6.2 8.2-10.1 18.4-12.8 28.2-2.7 10.1-2.5 20.1-0.4 30.3 2 9.7 5.6 20.1 12.2 27.7 13.3 15 26.6-10.6 30.3-20.7 2.9-7.9 4.6-16.4 4.7-24.8 0-1-3.6-0.4-3.6 1-0.1 10.2-2.8 20.2-6.8 29.6-2.4 5.6-9.3 20.4-17.4 16.7-7.2-3.3-10.9-14-13.2-20.9-3.2-9.5-5.1-19.9-4-29.9 0.9-8.8 4-17.5 7.7-25.4 2.4-5.3 9.3-20.3 17-19 7.3 1.2 10.7 13.6 12.5 19.3 2.9 9.6 4.3 19.7 4.4 29.7 0 1 3.6 0.4 3.6-1z"/><path d="m471.1 396.2c-0.3-18-9.1-45.8-21.1-45.6-12 0.2-16 30.4-16.9 46.3-1 18 6.3 40 18.3 39.8 12-0.2 20-22.5 19.7-40.5z" fill="#fb4b34"/><path d="m469.1 394.9c-0.3-11.1-2.4-22.4-6.3-32.8-2.1-5.6-6.6-16.2-14.3-14.7-5.1 1-7.7 4-9.8 8.6-4.1 9-5.2 19.5-6.2 29.2-1.1 11.2-1.3 22.2 1.3 33.1 1.7 7.2 5.9 20.3 15.4 19.6 5.5-0.4 9.5-4.1 12.2-8.6 6.1-9.9 7.7-23.1 7.6-34.5 0 0.2-2.9 0.5-2.9 0.8 0.1 8.9-1.2 17.7-4 26.2-1.9 5.9-5.4 13.9-12 15.8 0.9-0.2 1.8-0.5 2.7-0.7-13.7 2.5-17.3-22.2-18.1-31.1-1.3-13.8 0.7-29 4-42.4 1.3-5.1 3-10.8 6.9-14.6 2.8-2.6 7.1 1.4 9.5 4.8 8.2 11.3 10.6 28.4 11 42 0-0.2 2.9-0.5 2.9-0.8z"/><path d="m482.6 326.9c13.5 12.7 20.6 29 20.8 47.6 0 0.8 1.2 0.8 1.2 0-0.2-18.8-7.5-35.5-21.2-48.4-0.6-0.5-1.4 0.3-0.8 0.8l0 0z"/><path d="m422.3 230.6c-6.1 4.3-13.9 7.9-18.2 14.3-5.7 8.4-2.8 18.5-7 27.4-0.2 0.5 0.5 1 0.8 0.5 3.7-8 1.5-17.1 5.5-25 3.8-7.6 12.7-11.7 19.3-16.3 0.5-0.3 0-1.1-0.5-0.8l0 0z"/><path d="m316.2 412.8c19.8-13 23.5-40.9 46.4-50.5 0.4-0.2 0.2-0.9-0.2-0.7-23 9.6-26.7 37.4-46.6 50.5-0.4 0.3 0 0.9 0.4 0.6l0 0z"/></g></svg>